<?xml version="1.0" standalone="no"?>
<!DOCTYPE svg PUBLIC "-//W3C//DTD SVG 20010904//EN" "http://www.w3.org/TR/2001/REC-SVG-20010904/DTD/svg10.dtd">
<!-- Created using Krita: https://krita.org -->
<svg xmlns="http://www.w3.org/2000/svg" 
    xmlns:xlink="http://www.w3.org/1999/xlink"
    xmlns:krita="http://krita.org/namespaces/svg/krita"
    xmlns:sodipodi="http://sodipodi.sourceforge.net/DTD/sodipodi-0.dtd"
    width="240pt"
    height="240pt"
    viewBox="0 0 240 240">
<defs/>
<g id="group0" transform="translate(28.8, 19.2)" fill="none">
  <ellipse id="shape0" transform="translate(43.2, 158.7)" rx="21.6" ry="11.7" cx="21.6" cy="11.7" fill="#000000" fill-rule="evenodd" stroke="#000000" stroke-width="9.6" stroke-linecap="square" stroke-linejoin="bevel"/>
  <ellipse id="shape1" transform="translate(76.8, 57.9)" rx="21.6" ry="11.7" cx="21.6" cy="11.7" fill="#000000" fill-rule="evenodd" stroke="#000000" stroke-width="9.6" stroke-linecap="square" stroke-linejoin="bevel"/>
  <rect id="shape2" transform="translate(21.6, 0)" fill="#000000" fill-rule="evenodd" stroke="#000000" stroke-width="9.6" stroke-linecap="square" stroke-linejoin="bevel" width="165.6" height="33.6"/>
  <path id="shape3" transform="translate(64.785249446023, 26.4)" fill="#000000" fill-rule="evenodd" stroke="#000000" stroke-width="9.6" stroke-linecap="square" stroke-linejoin="bevel" d="M43.216 7.10543e-15C44.5064 59.6931 -0.976233 115.297 0.0160034 172.8L38.416 172.8C39.0488 115.403 87.3544 56.5339 86.416 7.10543e-15C71.216 4.73695e-15 56.016 2.36848e-15 40.816 0" sodipodi:nodetypes="ccccc"/>
  <rect id="shape01" transform="translate(29.799106135865, 12.6374997956828)" fill="#ffffff" fill-rule="evenodd" stroke="#ffffff" stroke-width="9.6" stroke-linecap="square" stroke-linejoin="bevel" width="137.20178772827" height="8.3250004086345"/>
  <path id="shape02" transform="translate(72.0079196456822, 21.6)" fill="#ffffff" fill-rule="evenodd" stroke="#ffffff" stroke-width="9.6" stroke-linecap="square" stroke-linejoin="bevel" d="M40.7921 0C41.3847 78.4131 1.09328 106.297 0 172.8L12.7541 172.8C12.4303 95.723 55.7536 74.8939 55.1921 0" sodipodi:nodetypes="cccc"/>
  <ellipse id="shape03" transform="translate(19.2, 77.1)" rx="21.6" ry="11.7" cx="21.6" cy="11.7" fill="#000000" fill-rule="evenodd" stroke="#000000" stroke-width="9.6" stroke-linecap="square" stroke-linejoin="bevel"/>
  <ellipse id="shape04" transform="translate(0, 125.1)" rx="21.6" ry="11.7" cx="21.6" cy="11.7" fill="#000000" fill-rule="evenodd" stroke="#000000" stroke-width="9.6" stroke-linecap="square" stroke-linejoin="bevel"/>
 </g>
</svg>
